/* XPM */
static const char * davit_22x22_xpm[] = {
"22 22 187 2",
"  	c None",
". 	c #8F5902",
"+ 	c #EEEAC6",
"@ 	c #CFAD71",
"# 	c #C5A104",
"$ 	c #EFEBC7",
"% 	c #D2AC6A",
"& 	c #A18354",
"* 	c #F1DC58",
"= 	c #F3E35A",
"- 	c #F3E35C",
"; 	c #F3E35E",
"> 	c #F3E45F",
", 	c #F3E461",
"' 	c #F3E463",
") 	c #F4E565",
"! 	c #F4E566",
"~ 	c #F4E568",
"{ 	c #F4E56A",
"] 	c #F4E66D",
"^ 	c #F4E66F",
"/ 	c #F4E772",
"( 	c #A48757",
"_ 	c #F4E464",
": 	c #EDD400",
"< 	c #EDD402",
"[ 	c #EDD505",
"} 	c #EED608",
"| 	c #EED60B",
"1 	c #EED70E",
"2 	c #CFAA69",
"3 	c #9B7E51",
"4 	c #F4E670",
"5 	c #EDD506",
"6 	c #EFD70E",
"7 	c #EFD812",
"8 	c #EFD815",
"9 	c #CEA668",
"0 	c #9F8254",
"a 	c #F8EE96",
"b 	c #F5E87C",
"c 	c #EDD504",
"d 	c #EED60A",
"e 	c #EFD813",
"f 	c #F0D917",
"g 	c #F0DA1B",
"h 	c #EEE8C6",
"i 	c #F2DC27",
"j 	c #F9F0A5",
"k 	c #F6EA88",
"l 	c #EED60C",
"m 	c #EFD811",
"n 	c #F0D916",
"o 	c #F1DB20",
"p 	c #CDAB6F",
"q 	c #A28556",
"r 	c #F3DF30",
"s 	c #F3DF31",
"t 	c #FAF3B3",
"u 	c #F7EC94",
"v 	c #EED70D",
"w 	c #F0D918",
"x 	c #F1DA1E",
"y 	c #F1DC23",
"z 	c #EDE6C5",
"A 	c #CBA165",
"B 	c #A28555",
"C 	c #F4E139",
"D 	c #F5E13A",
"E 	c #F5E13B",
"F 	c #FBF5BF",
"G 	c #F8EEA0",
"H 	c #F0D919",
"I 	c #F1DB1F",
"J 	c #F2DC25",
"K 	c #EDE5C4",
"L 	c #C89F64",
"M 	c #9F8154",
"N 	c #F5E240",
"O 	c #F6E343",
"P 	c #F6E345",
"Q 	c #FCF7CB",
"R 	c #F9F1AC",
"S 	c #EDD403",
"T 	c #F1DB1E",
"U 	c #F1DC2A",
"V 	c #705B39",
"W 	c #C2AB8A",
"X 	c #A38555",
"Y 	c #E6D541",
"Z 	c #EEDC47",
"` 	c #F6E44C",
" .	c #F6E54E",
"..	c #FDF9D6",
"+.	c #F9F3B8",
"@.	c #EED507",
"#.	c #F0DA1C",
"$.	c #F1DC29",
"%.	c #4C4226",
"&.	c #6B5736",
"*.	c #B0A234",
"=.	c #BEB13C",
"-.	c #D2C346",
";.	c #E7D750",
">.	c #EEDD55",
",.	c #F2E157",
"'.	c #FCF9DF",
").	c #FAF5C4",
"!.	c #F2DD27",
"~.	c #F2DD2D",
"{.	c #000000",
"].	c #9B8F2A",
"^.	c #988C2D",
"/.	c #A69A35",
"(.	c #BCAF41",
"_.	c #CFC14C",
":.	c #DBCC53",
"<.	c #DFD157",
"[.	c #EBDC5E",
"}.	c #FBF8E4",
"|.	c #FBF7D0",
"1.	c #F2DD2A",
"2.	c #F0DD38",
"3.	c #E3D23B",
"4.	c #D2C23C",
"5.	c #D1C242",
"6.	c #DCCD4B",
"7.	c #E8D955",
"8.	c #EFDF5D",
"9.	c #F3E364",
"0.	c #F3E468",
"a.	c #F7E86B",
"b.	c #FCF7CA",
"c.	c #E19E5A",
"d.	c #FCF9DC",
"e.	c #F0DA1D",
"f.	c #F2DC24",
"g.	c #F3DE2C",
"h.	c #F4DF33",
"i.	c #F7E54A",
"j.	c #F8E652",
"k.	c #F9E859",
"l.	c #FAEA60",
"m.	c #FBEB68",
"n.	c #FCED6F",
"o.	c #FDEE75",
"p.	c #FCEE74",
"q.	c #F8E69A",
"r.	c #F3D6B1",
"s.	c #FDFAE8",
"t.	c #F0D915",
"u.	c #F1DA1D",
"v.	c #F4E034",
"w.	c #F5E13C",
"x.	c #F7E54B",
"y.	c #F7E652",
"z.	c #F8E759",
"A.	c #F9E861",
"B.	c #FAEA69",
"C.	c #FAEA79",
"D.	c #F9E687",
"E.	c #F7E498",
"F.	c #F9EDD2",
"G.	c #F9ECDB",
"H.	c #FCF7F4",
"I.	c #FDF9F6",
"J.	c #FDF9F7",
"K.	c #FDFBF9",
"L.	c #FEFCFB",
"M.	c #FEFDFD",
"N.	c #FEFEFE",
"O.	c #FFFFFF",
"P.	c #FBF2EC",
"Q.	c #F7E5D6",
"R.	c #F2D4B9",
"S.	c #E0995A",
"T.	c #D08C22",
"U.	c #CE5E04",
"V.	c #D3B843",
"W.	c #D1BD42",
"X.	c #D2BE43",
"Y.	c #924200",
"Z.	c #C85C00",
"`.	c #C75B00",
" +	c #C65B00",
".+	c #C55B00",
"++	c #944300",
"                                      . .   ",
"                                    . + @ . ",
"  # # # # # # # # # # # # # # # # . $ % & . ",
"  # * = - ; > , ' ) ! ~ { ] ^ / . $ % ( .   ",
"  # _ : : : : : : : < [ } | 1 . + 2 3 . #   ",
"  # 4 : : : : : < 5 | 6 7 8 . + 9 0 . a #   ",
"  # b : : : : c d 6 e f g . h 9 ( . i j #   ",
"  # k : : : 5 l m n g o . h p q . r s t #   ",
"  # u : : 5 v e w x y . z A B . C D E F #   ",
"  # G : [ l 7 H I J . K L M . N O P P Q #   ",
"  # R S d m w T J U V W X . Y Z `  . ...#   ",
"  # +.@.1 8 #.y $.. %.&.. *.=.-.;.>.,.'.#   ",
"  # ).d m H o !.~.{.. ].^./.(._.:.<.[.}.#   ",
"  # |.l e g y 1.s 2.3.4.5.6.7.8.9.0.a.b.c.  ",
"  # d.v 8 e.f.g.h.E O i.j.k.l.m.n.o.p.q.r.  ",
"  # s.1 t.u.J g.v.w.O x.y.z.A.B.C.D.E.F.G.# ",
"  # H.I.J.K.L.M.N.O.O.O.O.O.O.N.P.Q.R.S.#   ",
"  # # # # # # # # # # # # # # # # # # T.U.  ",
"  U.V.W.W.W.X.X.X.X.X.X.X.X.X.X.X.X.X.V.U.  ",
"  Y.Z.Z.Z.Z.`.`. + +.+.+.+ + +`.`.Z.Z.Z.++  ",
"                                            ",
"                                            "};
